PathFileType	4	(X/Y/Z)	OpenSim_Sub02_CSBaseline_Magnet.trc
DataRate	CameraRate	NumFrames	NumMarkers	Units	OrigDataRate	OrigDataStartFrame	OrigNumFrames
100	100	40	8	m	100	6175	7057
Frame#	Time	torso_imu_offset_imu	pelvis_imu_offset_imu	tibia_r_imu_offset_imu	femur_r_imu_offset_imu	tibia_l_imu_offset_imu	femur_l_imu_offset_imu	toes_r_imu_offset_imu	toes_l_imu_offset_imu
				X1	Y1	Z1	X2	Y2	Z2	X3	Y3	Z3	X4	Y4	Z4	X5	Y5	Z5	X6	Y6	Z6	X7	Y7	Z7	X8		Y8	Z8	

6175	61.74000000	-0.92853552	-0.13145338	-0.09050591	-0.64570829	0.12169868	-0.64216956	-0.01635706	-0.73807517	-0.33758993	-0.74794405	-0.36869622	0.11072551	-0.69698018	0.38777687	0.12855156	-0.59971827	0.12106520	0.30067914	-0.63739080	-0.41601326	0.25428967	-0.61912050	-0.16622120	-0.49150167
6176	61.75000000	-0.93130653	-0.13225269	-0.08681928	-0.64451463	0.12781478	-0.64124426	-0.00279620	-0.73824991	-0.34653515	-0.75836486	-0.35331036	0.10537812	-0.69281584	0.39323144	0.13261450	-0.59669078	0.12289450	0.30761908	-0.61968836	-0.43667462	0.27375428	-0.61973132	-0.16591822	-0.49324429
6177	61.76000000	-0.92827139	-0.14108901	-0.08441768	-0.64403632	0.13260762	-0.64232259	0.00629187	-0.73468933	-0.35108099	-0.75791058	-0.34160601	0.09351793	-0.68252965	0.39744321	0.13654153	-0.59651045	0.12513819	0.30703665	-0.59979685	-0.45159299	0.28853294	-0.61819828	-0.16625463	-0.49683322
6178	61.77000000	-0.92396797	-0.13538759	-0.08943441	-0.64239352	0.13745365	-0.64634739	0.01051641	-0.72602028	-0.36235244	-0.77077039	-0.32757433	0.08921989	-0.68592562	0.40780230	0.14116109	-0.59404392	0.12275214	0.31623065	-0.57795116	-0.48043311	0.28942678	-0.61879628	-0.16941701	-0.49956983
6179	61.78000000	-0.92650836	-0.14466574	-0.08582665	-0.64252748	0.13723773	-0.63962636	0.01390616	-0.72277308	-0.37543871	-0.77644310	-0.31259038	0.07827194	-0.68289099	0.41502055	0.14255001	-0.58683301	0.12180341	0.32027420	-0.55753266	-0.51270447	0.27863822	-0.62288291	-0.17303545	-0.48823251
6180	61.79000000	-0.92490969	-0.14669570	-0.08175364	-0.64303050	0.14013435	-0.64515860	0.01782172	-0.71606403	-0.38676790	-0.78117177	-0.30210358	0.07169192	-0.68058336	0.42651089	0.13819947	-0.57893646	0.12613306	0.32830049	-0.53957687	-0.53948892	0.24427187	-0.61460646	-0.17248578	-0.49612224
6181	61.80000000	-0.92460211	-0.14494210	-0.08227814	-0.64604509	0.14538618	-0.64598182	0.01651352	-0.71505490	-0.39247360	-0.79074855	-0.29046664	0.06247838	-0.67645518	0.43383984	0.13719454	-0.58186806	0.12730506	0.33123689	-0.52097214	-0.56808588	0.21850560	-0.61768906	-0.17215371	-0.49678083
6182	61.81000000	-0.92916260	-0.14969126	-0.07627156	-0.64666763	0.15024613	-0.64107019	0.01600018	-0.71011829	-0.39454661	-0.79175470	-0.27829684	0.06059360	-0.67582714	0.43724619	0.13184266	-0.57835424	0.13565934	0.32836183	-0.51094212	-0.58527456	0.20181797	-0.62129719	-0.17378947	-0.49434779
6183	61.82000000	-0.92978723	-0.14474644	-0.07634505	-0.64570684	0.15370424	-0.64234476	0.00805773	-0.70902890	-0.40735715	-0.79576217	-0.26229414	0.05098403	-0.67395013	0.43957586	0.12742472	-0.57443632	0.13486583	0.33196699	-0.50252614	-0.59910058	0.18269245	-0.61153048	-0.17703025	-0.49848801
6184	61.83000000	-0.92728272	-0.14742983	-0.07511679	-0.64309719	0.15731269	-0.63939801	0.00152602	-0.69804272	-0.41332098	-0.80209668	-0.25450294	0.04616349	-0.66759292	0.44555747	0.11816360	-0.57247638	0.14421243	0.32985953	-0.49093836	-0.60871141	0.17181627	-0.61490503	-0.17727964	-0.49370060
6185	61.84000000	-0.92499918	-0.15353793	-0.07137044	-0.64116393	0.15882529	-0.64432036	-0.01524799	-0.68658473	-0.42423335	-0.80623052	-0.24663538	0.03898136	-0.66748329	0.45415264	0.11327092	-0.57166065	0.15204853	0.33305406	-0.48927818	-0.61187231	0.15772890	-0.61465744	-0.17955777	-0.49293161
6186	61.85000000	-0.92357093	-0.15337127	-0.06313540	-0.64694661	0.17049768	-0.63774639	-0.03216237	-0.67875870	-0.44748912	-0.81042277	-0.23872339	0.03459398	-0.66543414	0.46036798	0.11437935	-0.57013954	0.16016105	0.33337059	-0.49173852	-0.61146734	0.14165421	-0.61726207	-0.17827038	-0.49783578
6187	61.86000000	-0.92774220	-0.14865287	-0.07014110	-0.64238642	0.17035690	-0.63028602	-0.05388711	-0.66547112	-0.46303734	-0.81124863	-0.22974216	0.02969011	-0.66011315	0.46727634	0.10693423	-0.56421716	0.16091379	0.32721543	-0.49423643	-0.60532493	0.13012593	-0.61559172	-0.17652553	-0.49719164
6188	61.87000000	-0.92851453	-0.14891627	-0.07170993	-0.64868085	0.17566115	-0.63954685	-0.08213416	-0.65107279	-0.47876414	-0.81905283	-0.21182670	0.02423986	-0.65587861	0.47768775	0.10755221	-0.55729498	0.17249253	0.32234328	-0.50486646	-0.60103072	0.11508923	-0.61609420	-0.17692906	-0.50319780
6189	61.88000000	-0.92391158	-0.15282943	-0.06655323	-0.64467887	0.18424375	-0.64159962	-0.10129902	-0.64572935	-0.47931837	-0.82816879	-0.20917767	0.02006176	-0.65122607	0.48546640	0.09997441	-0.55174395	0.17915991	0.32170455	-0.52277782	-0.59551778	0.09389339	-0.62175232	-0.17624691	-0.50240246
6190	61.89000000	-0.92839222	-0.15088286	-0.06147797	-0.64185506	0.18726815	-0.63484200	-0.11515208	-0.63659721	-0.48823973	-0.82084575	-0.19911448	0.01740997	-0.65196791	0.48604101	0.09494578	-0.55965721	0.17874608	0.32144991	-0.53622824	-0.58617737	0.07043559	-0.62177510	-0.17392310	-0.50183835
6191	61.90000000	-0.92807124	-0.15175954	-0.06077560	-0.64232131	0.19543128	-0.63151273	-0.13796347	-0.63378214	-0.48490654	-0.82684541	-0.18907868	0.01539516	-0.63863143	0.49419051	0.08976317	-0.55215178	0.18736188	0.32436223	-0.55196004	-0.56762919	0.04151393	-0.62374046	-0.17146996	-0.50513407
6192	61.91000000	-0.93130464	-0.15556520	-0.06468007	-0.63796633	0.19919322	-0.63692050	-0.16008208	-0.63327731	-0.47975531	-0.82807335	-0.17750793	0.01515122	-0.63738910	0.49911353	0.08767485	-0.54937807	0.18824596	0.32330546	-0.56759197	-0.55865798	0.01496824	-0.62377881	-0.17053944	-0.51126865
6193	61.92000000	-0.93010320	-0.15263293	-0.05740846	-0.63453220	0.20311743	-0.63881559	-0.18229998	-0.63124642	-0.47037040	-0.82783249	-0.16785156	0.01539636	-0.63637215	0.50649607	0.07747481	-0.54842884	0.19159829	0.32746788	-0.58837784	-0.55095522	-0.01604475	-0.62718771	-0.17277730	-0.50618352
6194	61.93000000	-0.92652572	-0.15670794	-0.05724961	-0.63466745	0.20445259	-0.64130801	-0.20652265	-0.64094443	-0.44822453	-0.82989138	-0.16618696	0.01743099	-0.63192122	0.51752460	0.07197676	-0.54236014	0.19502065	0.32190647	-0.59789866	-0.53526860	-0.04754499	-0.63587700	-0.17223276	-0.50321064
6195	61.94000000	-0.93265003	-0.15667118	-0.05886589	-0.62953720	0.20445362	-0.64357990	-0.23074482	-0.63926304	-0.43583845	-0.83141690	-0.15777936	0.01607729	-0.62284345	0.52369422	0.06987401	-0.54627838	0.19429198	0.31968075	-0.60325606	-0.51808529	-0.08586883	-0.64619826	-0.16908248	-0.50133463
6196	61.95000000	-0.92718656	-0.15875621	-0.05473442	-0.63187460	0.20868193	-0.64572468	-0.26134602	-0.63989803	-0.41430295	-0.83061701	-0.14834436	0.01372939	-0.61609888	0.53096210	0.06644725	-0.53992899	0.19541011	0.32805512	-0.60376633	-0.50479810	-0.12056979	-0.64319300	-0.16535320	-0.50419689
6197	61.96000000	-0.92417159	-0.15823242	-0.04878800	-0.62904156	0.21700008	-0.64472477	-0.28821164	-0.63949193	-0.39381348	-0.83859468	-0.14308290	0.01442288	-0.62056918	0.53189629	0.06650128	-0.53874966	0.20102535	0.32642445	-0.61062347	-0.49759393	-0.15336196	-0.63881526	-0.16722650	-0.49983443
6198	61.97000000	-0.92758284	-0.15905544	-0.04807909	-0.62779451	0.21820387	-0.64375101	-0.31748923	-0.63659247	-0.38069119	-0.83643921	-0.13489660	0.01628472	-0.61318085	0.54453821	0.06418105	-0.53853498	0.20689621	0.32773043	-0.60787249	-0.48191161	-0.18484844	-0.65131724	-0.17113449	-0.50480648
6199	61.98000000	-0.92579780	-0.16093151	-0.05152210	-0.62803029	0.21394358	-0.64548030	-0.35229544	-0.62781199	-0.35922009	-0.83655633	-0.12685492	0.01440013	-0.60680593	0.54832290	0.05421834	-0.53408841	0.21200290	0.32872219	-0.60508631	-0.46831091	-0.21993613	-0.65583650	-0.16907634	-0.50527187
6200	61.99000000	-0.92727478	-0.16463852	-0.05408843	-0.62761160	0.21668063	-0.64191401	-0.37679796	-0.61723446	-0.34459135	-0.84092908	-0.12396509	0.01496125	-0.60759905	0.55452260	0.05490296	-0.53450773	0.21729937	0.33084572	-0.60011142	-0.45554175	-0.25241917	-0.65838602	-0.16629807	-0.49578708
6201	62.00000000	-0.92472436	-0.16881006	-0.05061751	-0.62491141	0.22182815	-0.64302343	-0.41207008	-0.60412961	-0.33592764	-0.84252613	-0.11956943	0.01952403	-0.60388993	0.56071496	0.05212906	-0.52995170	0.21585656	0.33069319	-0.60203990	-0.43973912	-0.27371659	-0.65868105	-0.16948237	-0.48882689
6202	62.01000000	-0.92639207	-0.16759375	-0.04591806	-0.62473575	0.22097576	-0.64833955	-0.44191619	-0.58104620	-0.33515296	-0.84127010	-0.12170435	0.01403420	-0.59679185	0.56673092	0.05278981	-0.52961068	0.21882968	0.32694914	-0.60321042	-0.42165849	-0.30353670	-0.65822709	-0.17523868	-0.48555010
6203	62.02000000	-0.92542652	-0.17227305	-0.04301477	-0.62830427	0.22141480	-0.64518279	-0.46724103	-0.56412599	-0.32859454	-0.84064993	-0.11825003	0.01843553	-0.59132172	0.56471653	0.05016392	-0.52326474	0.22685888	0.33438905	-0.60172102	-0.40482448	-0.33582640	-0.66124823	-0.17899536	-0.48815328
6204	62.03000000	-0.92138770	-0.17282806	-0.04556682	-0.62389283	0.22045832	-0.64633789	-0.49743723	-0.53724522	-0.33319409	-0.84191758	-0.11982437	0.02827896	-0.58921509	0.57141166	0.04510197	-0.52441516	0.23230718	0.32530662	-0.59796349	-0.38596557	-0.36118459	-0.65896970	-0.17387947	-0.48028006
6205	62.04000000	-0.92531884	-0.17012893	-0.04397772	-0.61870762	0.21981811	-0.64869245	-0.52700050	-0.51186585	-0.33113243	-0.83998075	-0.12622486	0.02459452	-0.58414009	0.57999286	0.04685337	-0.51862125	0.23947153	0.32591947	-0.58758083	-0.37182327	-0.39706788	-0.65864060	-0.17752519	-0.47286998
6206	62.05000000	-0.92201525	-0.16964519	-0.04012820	-0.61990048	0.22038764	-0.65105935	-0.55279081	-0.47966637	-0.32720420	-0.83881260	-0.12707638	0.01999891	-0.57715594	0.58549160	0.03894579	-0.51945621	0.24225468	0.32492198	-0.57982636	-0.35536442	-0.42429041	-0.65638064	-0.18491127	-0.46976102
6207	62.06000000	-0.92126782	-0.17461636	-0.04118599	-0.62213299	0.21632607	-0.65322741	-0.58459687	-0.45514523	-0.32275557	-0.83512644	-0.13345881	0.02362162	-0.57208151	0.59068871	0.03281105	-0.51589534	0.24771941	0.32492448	-0.56853496	-0.32894891	-0.45345587	-0.65716181	-0.18279036	-0.47262813
6208	62.07000000	-0.92319006	-0.17839201	-0.04301786	-0.61869495	0.21797752	-0.65061427	-0.60489484	-0.42821756	-0.30644464	-0.83573394	-0.14270258	0.02606794	-0.56992247	0.60081925	0.02939700	-0.51294521	0.25197454	0.31859167	-0.55845496	-0.31199132	-0.48286265	-0.66005110	-0.18294139	-0.46916288
6209	62.08000000	-0.92241372	-0.17938101	-0.04176090	-0.61314603	0.21372639	-0.64491495	-0.62125430	-0.40357756	-0.29231682	-0.83357083	-0.15378909	0.02834526	-0.56482672	0.60602989	0.01979691	-0.51331484	0.26266089	0.31518387	-0.55086811	-0.29584175	-0.50609844	-0.65512673	-0.18677440	-0.46537231
6210	62.09000000	-0.92443843	-0.18013143	-0.04025371	-0.61719126	0.20732054	-0.64946677	-0.64419006	-0.38242084	-0.28114760	-0.83117427	-0.15868961	0.02801521	-0.55796992	0.60478830	0.01981513	-0.51003512	0.26932370	0.30987912	-0.53656711	-0.27773368	-0.52972359	-0.64418075	-0.19043840	-0.45835343
6211	62.10000000	-0.93037480	-0.18134951	-0.03961653	-0.61849487	0.21322328	-0.65152126	-0.65928694	-0.36666895	-0.27312454	-0.83094800	-0.17484657	0.02915502	-0.55184757	0.61435607	0.01504965	-0.50728762	0.27762817	0.30933713	-0.53284860	-0.25387473	-0.54934225	-0.64862223	-0.19403074	-0.46452350
6212	62.11000000	-0.92684863	-0.17942344	-0.03838866	-0.62391963	0.21025127	-0.64702119	-0.66727131	-0.34893536	-0.25987930	-0.82468539	-0.18239337	0.03233741	-0.54880072	0.62384772	0.01094317	-0.50658644	0.28462655	0.30470832	-0.52594967	-0.23355561	-0.56801226	-0.64906169	-0.19145881	-0.45746486
6213	62.12000000	-0.91934347	-0.17923620	-0.04080659	-0.62344797	0.20632028	-0.64826789	-0.68363583	-0.32722197	-0.24884762	-0.82282229	-0.19278018	0.03376420	-0.54055637	0.62685930	0.00137920	-0.50285679	0.29223746	0.30212095	-0.51114514	-0.22432296	-0.58253632	-0.64708316	-0.19483325	-0.46116427
6214	62.13000000	-0.92280382	-0.18043315	-0.04409693	-0.62622634	0.19949628	-0.65026980	-0.69523130	-0.30843499	-0.24650788	-0.82055458	-0.20040417	0.03601456	-0.52735468	0.63412796	-0.00496135	-0.49960732	0.29269252	0.29755809	-0.51170294	-0.21610077	-0.60159001	-0.64725464	-0.19300320	-0.46727042
